<svg id="restart_alt_black_24dp_1_" data-name="restart_alt_black_24dp (1)" xmlns="http://www.w3.org/2000/svg" width="15.697" height="15.697" viewBox="0 0 15.697 15.697">
  <g id="Group_4" data-name="Group 4">
    <path id="Path_4" data-name="Path 4" d="M0,0H15.7V15.7H0Z" fill="none"/>
  </g>
  <g id="Group_6" data-name="Group 6" transform="translate(2.616 1.308)">
    <g id="Group_5" data-name="Group 5">
      <path id="Path_5" data-name="Path 5" d="M10.616,3.962V2L8,4.616l2.616,2.616V5.27a3.922,3.922,0,0,1,.654,7.79v1.321a5.23,5.23,0,0,0-.654-10.419Z" transform="translate(-5.384 -2)" fill="#518f96"/>
      <path id="Path_6" data-name="Path 6" d="M5.308,11.042A3.911,3.911,0,0,1,6.459,8.269L5.531,7.34a5.232,5.232,0,0,0,3.048,8.889V14.907A3.929,3.929,0,0,1,5.308,11.042Z" transform="translate(-4 -3.847)" fill="#518f96"/>
    </g>
  </g>
</svg>
